# xmcd
#
# Track frame offsets:
#	150
#	27668
#	59475
#
# Disc length: 1162 seconds
# Revision: 0
# Processed by: cddbd v1.5.2PL0 Copyright (c) Steve Scherf et al.
# Submitted via: dBpowerAMP V12.0
#
DISCID=26048803
DTITLE=Alexander O'Neal - What Is This Thing Called Love? [CD Single)
DYEAR=1995
DGENRE=R&B
TTITLE0=What Is This Thing Called Love? (Album Version)
TTITLE1=The Lovers (Extended Version)
TTITLE2=If You Were Here Tonight
EXTD=
EXTT0=
EXTT1=
EXTT2=
PLAYORDER=
